# xmcd
#
# Track frame offsets: 
#        150
#        16897
#        32492
#        52527
#        67322
#        86385
#        95937
#        107305
#        121765
#        133565
#        147575
#        166195
#        180985
#        196090
#        211825
#        224695
#        242557
#        256722
#        268992
#        284667
#        302665
#
# Disc length: 4280 seconds
#
# Revision: 2
# Processed by: cddbd v1.5.2PL0 Copyright (c) Steve Scherf et al.
# Submitted via: ExactAudioCopy v0.99pb5
#
DISCID=2610b615
DTITLE=Various Artist - Memory Time - Folge 9 (1971-1972)
DYEAR=1989
DGENRE=Pop
TTITLE0=Doobie Brothers - Listen to the music
TTITLE1=Eagles - Take it easy
TTITLE2=Arlo Guthrie - The city of New Orleans
TTITLE3=Stephen Stills - Change partners
TTITLE4=Carly Simon - That's the way I've always heard it should be
TTITLE5=Sailcat - Motorcycle mama
TTITLE6=Robert John - The lion sleeps tonight
TTITLE7=Jackson Browne - Doctor, my eyes
TTITLE8=Joni Mitchell - You turn me on, I'm a radio
TTITLE9=Bread - Everything I own
TTITLE10=America - A horse with no name
TTITLE11=Faces - Stay with me
TTITLE12=Long John Baldry - Don't try to lay no Boogie-Woogie on the k
TTITLE12=ing of Rock 'n' Roll
TTITLE13=Alice Cooper - School's out
TTITLE14=Tami Lynn - I'm gonna run away from you
TTITLE15=Dr. John - Iko iko
TTITLE16=Quincy Jones - Money runner
TTITLE17=Bette Midler - Do you want to dance?
TTITLE18=Yes - Roundabout
TTITLE19=Lobo - I'd love you to want me
TTITLE20=Judy Collins - Open the door (song for Judith)
EXTD=
EXTT0=
EXTT1=
EXTT2=
EXTT3=
EXTT4=
EXTT5=
EXTT6=
EXTT7=
EXTT8=
EXTT9=
EXTT10=
EXTT11=
EXTT12=
EXTT13=
EXTT14=
EXTT15=
EXTT16=
EXTT17=
EXTT18=
EXTT19=
EXTT20=
PLAYORDER=
